<svg width="60" height="60" viewBox="0 0 60 60" fill="none" xmlns="http://www.w3.org/2000/svg">
<g filter="url(#filter0_i_3_33)">
<path d="M0 10C0 4.47715 4.47715 0 10 0H50C55.5228 0 60 4.47715 60 10V50C60 55.5228 55.5228 60 50 60H10C4.47715 60 0 55.5228 0 50V10Z" fill="url(#paint0_linear_3_33)"/>
</g>
<g clip-path="url(#clip0_3_33)">
<path d="M31.3468 28.1681L31.3469 28.1682L31.7747 29.1489L32.2087 28.1714L32.2088 28.1713L32.2088 28.1712L32.2093 28.1701L32.2118 28.1645L32.2231 28.1396C32.2333 28.1172 32.249 28.0833 32.2699 28.0388C32.3117 27.9499 32.3746 27.819 32.4574 27.6541C32.6231 27.3242 32.8679 26.8593 33.1828 26.3237C33.8147 25.2486 34.7184 23.9063 35.8184 22.7966C36.9229 21.6822 38.1832 20.845 39.5301 20.6922C40.8504 20.5425 42.3463 21.0407 43.9651 22.8052C45.1093 24.0523 45.7339 25.3141 45.9793 26.5606C46.2249 27.8082 46.0984 29.0799 45.682 30.3587C44.843 32.9354 42.8443 35.4871 40.4913 37.7657C38.1482 40.0347 35.5024 41.9869 33.4365 43.3745C32.4048 44.0675 31.5205 44.6177 30.8948 44.9944C30.582 45.1827 30.334 45.3275 30.1647 45.4249C30.1564 45.4297 30.1484 45.4343 30.1405 45.4388C30.1384 45.4375 30.1364 45.4361 30.1343 45.4348C29.9821 45.3335 29.759 45.1833 29.4776 44.9885C28.9147 44.599 28.1189 44.0315 27.1898 43.3217C25.3295 41.9005 22.9446 39.9161 20.8265 37.6529C18.6998 35.3807 16.8839 32.871 16.1048 30.4049C15.7177 29.1798 15.592 27.9826 15.7968 26.8352C16.0009 25.6918 16.5396 24.5609 17.5365 23.4744C19.5842 21.2425 21.4346 20.4772 23.0364 20.4971C24.6498 20.517 26.105 21.3344 27.3508 22.4706C28.5956 23.6059 29.5962 25.0285 30.2891 26.1789C30.6343 26.752 30.9003 27.2527 31.0794 27.609C31.1689 27.787 31.2366 27.9286 31.2815 28.0249C31.3039 28.073 31.3207 28.1097 31.3316 28.134L31.3436 28.1608L31.3463 28.1669L31.3468 28.168L31.3468 28.1681Z" fill="white" stroke="white"/>
</g>
<defs>
<filter id="filter0_i_3_33" x="0" y="0" width="60" height="64" filterUnits="userSpaceOnUse" color-interpolation-filters="sRGB">
<feFlood flood-opacity="0" result="BackgroundImageFix"/>
<feBlend mode="normal" in="SourceGraphic" in2="BackgroundImageFix" result="shape"/>
<feColorMatrix in="SourceAlpha" type="matrix" values="0 0 0 0 0 0 0 0 0 0 0 0 0 0 0 0 0 0 127 0" result="hardAlpha"/>
<feOffset dy="4"/>
<feGaussianBlur stdDeviation="2"/>
<feComposite in2="hardAlpha" operator="arithmetic" k2="-1" k3="1"/>
<feColorMatrix type="matrix" values="0 0 0 0 0 0 0 0 0 0 0 0 0 0 0 0 0 0 0.25 0"/>
<feBlend mode="normal" in2="shape" result="effect1_innerShadow_3_33"/>
</filter>
<linearGradient id="paint0_linear_3_33" x1="58.5" y1="53" x2="-68.5" y2="-19" gradientUnits="userSpaceOnUse">
<stop stop-color="#56F4E7"/>
<stop offset="0.106407" stop-color="#9D94FE"/>
<stop offset="0.254624" stop-color="#42F3EE"/>
<stop offset="0.299459" stop-color="#3EF7EE"/>
<stop offset="0.414627" stop-color="#3287F7"/>
<stop offset="0.50829" stop-color="#326AF7"/>
<stop offset="0.514423" stop-color="#35F7D6"/>
<stop offset="0.750002" stop-color="#A899FF"/>
</linearGradient>
<clipPath id="clip0_3_33">
<rect x="10" y="7" width="39.4514" height="43" fill="white"/>
</clipPath>
</defs>
</svg>
