<svg width="60" height="60" viewBox="0 0 60 60" fill="none" xmlns="http://www.w3.org/2000/svg">
<rect width="60" height="60" fill="#1E1E1E"/>
<g filter="url(#filter0_i_0_1)">
<path d="M0 10C0 4.47715 4.47715 0 10 0H50C55.5228 0 60 4.47715 60 10V50C60 55.5228 55.5228 60 50 60H10C4.47715 60 0 55.5228 0 50V10Z" fill="url(#paint0_linear_0_1)"/>
</g>
<path d="M15.4372 24.4957C24.276 15.6569 30.64 29.0919 30.64 29.0919C30.64 29.0919 36.6504 16.7175 43.7215 23.7886C53.7027 33.7698 28.8722 46.416 28.8722 46.416C28.8722 46.416 6.59834 33.3345 15.4372 24.4957Z" fill="white"/>
<defs>
<filter id="filter0_i_0_1" x="0" y="0" width="60" height="64" filterUnits="userSpaceOnUse" color-interpolation-filters="sRGB">
<feFlood flood-opacity="0" result="BackgroundImageFix"/>
<feBlend mode="normal" in="SourceGraphic" in2="BackgroundImageFix" result="shape"/>
<feColorMatrix in="SourceAlpha" type="matrix" values="0 0 0 0 0 0 0 0 0 0 0 0 0 0 0 0 0 0 127 0" result="hardAlpha"/>
<feOffset dy="4"/>
<feGaussianBlur stdDeviation="2"/>
<feComposite in2="hardAlpha" operator="arithmetic" k2="-1" k3="1"/>
<feColorMatrix type="matrix" values="0 0 0 0 0 0 0 0 0 0 0 0 0 0 0 0 0 0 0.25 0"/>
<feBlend mode="normal" in2="shape" result="effect1_innerShadow_0_1"/>
</filter>
<linearGradient id="paint0_linear_0_1" x1="47" y1="45" x2="-68.5" y2="-19" gradientUnits="userSpaceOnUse">
<stop offset="0.0185646" stop-color="#F45688"/>
<stop offset="0.227717" stop-color="#F73E79"/>
<stop offset="0.39653" stop-color="#F73573"/>
<stop offset="0.558006" stop-color="#F73270"/>
<stop offset="0.750002" stop-color="#FF99B2"/>
<stop offset="1" stop-color="#F73270"/>
</linearGradient>
</defs>
</svg>
